<svg width="27" height="23" viewBox="0 0 27 23" fill="none" xmlns="http://www.w3.org/2000/svg">
<path fill-rule="evenodd" clip-rule="evenodd" d="M23.3367 6.46651C25.5399 8.18357 26.6256 10.5582 26.6652 13.2926C26.6914 15.103 26.3718 16.8825 25.5517 18.446C25.1394 19.1481 24.6189 19.802 23.9757 20.3892C21.8985 22.2852 19.1113 22.9573 16.2648 22.9981C13.4183 23.0388 10.6127 22.4466 8.48155 20.6108C7.54044 19.8001 6.84535 18.8473 6.35442 17.8054C5.30299 17.8682 4.22527 17.5639 3.33119 16.8678L3.32997 16.8668C1.12672 15.1498 0.0410695 12.7751 0.00148101 10.0407C-0.0247292 8.2303 0.295015 6.45052 1.11513 4.88699C1.52743 4.18488 2.04773 3.53129 2.69101 2.94411C4.76812 1.04815 7.55539 0.375973 10.4019 0.335272C13.2484 0.29457 16.054 0.886772 18.1851 2.72256C19.1262 3.53324 19.8213 4.48605 20.3122 5.52788C21.3637 5.4651 22.4414 5.7694 23.3355 6.46556L23.3367 6.46651ZM4.78211 9.90766C4.78211 11.1745 5.18022 12.0616 6.07362 12.7846C6.47454 13.109 6.53808 13.7007 6.2138 14.1039C5.88952 14.5071 5.3017 14.57 4.89986 14.2446C3.56348 13.1615 2.91305 11.7437 2.91305 9.90766C2.91305 5.45635 5.43254 3.19928 10.4052 3.19928C15.3778 3.19928 17.8982 5.45635 17.8982 9.90766C17.8982 11.7493 17.2478 13.1681 15.9095 14.2455C15.7376 14.3843 15.531 14.4518 15.3254 14.4518C15.0526 14.4518 14.7806 14.3318 14.5965 14.1011C14.2732 13.6969 14.3377 13.1062 14.7404 12.7827C15.632 12.0644 16.0301 11.1773 16.0301 9.90766C16.0301 7.51744 15.3619 5.0747 10.4061 5.0747C5.45029 5.0747 4.78211 7.51837 4.78211 9.90766ZM20.1719 9.17437C20.4962 8.77209 21.084 8.70739 21.4858 9.03371V9.03278C22.8222 10.1158 23.4727 11.5336 23.4727 13.3697C23.4727 17.821 20.9522 20.0781 15.9796 20.0781C11.007 20.0781 8.48658 17.821 8.48658 13.3697C8.48658 11.528 9.13701 10.1093 10.4752 9.03184C10.8771 8.70739 11.4658 8.77115 11.7892 9.17624C12.1125 9.5804 12.0481 10.1712 11.6453 10.4947C10.7537 11.2129 10.3556 12.1 10.3556 13.3697C10.3556 15.7599 11.0238 18.2026 15.9796 18.2026C20.9354 18.2026 21.6036 15.759 21.6036 13.3697C21.6036 12.1028 21.2055 11.2158 20.3121 10.4928C19.9112 10.1683 19.8476 9.57759 20.1719 9.17437Z" fill="#2C46B1"/>
</svg>
